<mxfile host="65bd71144e">
    <diagram id="6C1BC3ImxjFFStuX-ONq" name="Page-1">
        <mxGraphModel dx="517" dy="473" grid="1" gridSize="10" guides="1" tooltips="1" connect="1" arrows="1" fold="1" page="1" pageScale="1" pageWidth="850" pageHeight="1100" background="#ffffff" math="0" shadow="1">
            <root>
                <mxCell id="0"/>
                <mxCell id="1" parent="0"/>
                <mxCell id="8" style="edgeStyle=none;html=1;exitX=0;exitY=1;exitDx=0;exitDy=0;entryX=0.5;entryY=0;entryDx=0;entryDy=0;" parent="1" source="21" target="24" edge="1">
                    <mxGeometry relative="1" as="geometry">
                        <mxPoint x="180" y="120" as="sourcePoint"/>
                        <mxPoint x="135.07048097933284" y="220" as="targetPoint"/>
                    </mxGeometry>
                </mxCell>
                <mxCell id="9" style="edgeStyle=none;html=1;exitX=0.5;exitY=1;exitDx=0;exitDy=0;entryX=0.433;entryY=0.017;entryDx=0;entryDy=0;entryPerimeter=0;" parent="1" source="21" edge="1">
                    <mxGeometry relative="1" as="geometry">
                        <mxPoint x="240" y="150" as="sourcePoint"/>
                        <mxPoint x="241.96000000000004" y="221.01999999999998" as="targetPoint"/>
                    </mxGeometry>
                </mxCell>
                <mxCell id="10" style="edgeStyle=none;html=1;exitX=1;exitY=1;exitDx=0;exitDy=0;entryX=0.5;entryY=0;entryDx=0;entryDy=0;" parent="1" source="21" target="32" edge="1">
                    <mxGeometry relative="1" as="geometry">
                        <mxPoint x="300" y="150" as="sourcePoint"/>
                        <mxPoint x="410" y="220" as="targetPoint"/>
                    </mxGeometry>
                </mxCell>
                <mxCell id="11" style="edgeStyle=none;html=1;exitX=1;exitY=0.5;exitDx=0;exitDy=0;entryX=0.5;entryY=0;entryDx=0;entryDy=0;" parent="1" source="21" target="35" edge="1">
                    <mxGeometry relative="1" as="geometry">
                        <mxPoint x="300" y="120" as="sourcePoint"/>
                        <mxPoint x="580" y="220" as="targetPoint"/>
                    </mxGeometry>
                </mxCell>
                <mxCell id="23" style="edgeStyle=none;html=1;exitX=1;exitY=0;exitDx=0;exitDy=0;entryX=0.5;entryY=0;entryDx=0;entryDy=0;" parent="1" source="21" target="37" edge="1">
                    <mxGeometry relative="1" as="geometry">
                        <mxPoint x="750" y="220" as="targetPoint"/>
                    </mxGeometry>
                </mxCell>
                <mxCell id="21" value="Router" style="ellipse;whiteSpace=wrap;html=1;aspect=fixed;" parent="1" vertex="1">
                    <mxGeometry x="200" y="60" width="80" height="80" as="geometry"/>
                </mxCell>
                <mxCell id="24" value="Workspace Page" style="swimlane;" parent="1" vertex="1">
                    <mxGeometry x="130" y="230" width="115" height="200" as="geometry"/>
                </mxCell>
                <mxCell id="25" value="Header" style="rounded=1;whiteSpace=wrap;html=1;" parent="24" vertex="1">
                    <mxGeometry x="15" y="30" width="80" height="40" as="geometry"/>
                </mxCell>
                <mxCell id="26" value="Sidebar" style="rounded=1;whiteSpace=wrap;html=1;" parent="24" vertex="1">
                    <mxGeometry x="20" y="80" width="75" height="40" as="geometry"/>
                </mxCell>
                <mxCell id="40" value="Home" style="swimlane;" parent="24" vertex="1">
                    <mxGeometry x="-120" width="90" height="200" as="geometry"/>
                </mxCell>
                <mxCell id="41" value="Header" style="rounded=1;whiteSpace=wrap;html=1;" parent="40" vertex="1">
                    <mxGeometry x="5" y="40" width="80" height="40" as="geometry"/>
                </mxCell>
                <mxCell id="42" value="Cards" style="rounded=1;whiteSpace=wrap;html=1;" vertex="1" parent="24">
                    <mxGeometry x="20" y="140" width="70" height="40" as="geometry"/>
                </mxCell>
                <mxCell id="27" value="Dashboard" style="swimlane;" parent="1" vertex="1">
                    <mxGeometry x="270" y="230" width="130" height="260" as="geometry"/>
                </mxCell>
                <mxCell id="28" value="Header" style="rounded=1;whiteSpace=wrap;html=1;" parent="27" vertex="1">
                    <mxGeometry x="20" y="30" width="80" height="40" as="geometry"/>
                </mxCell>
                <mxCell id="29" value="Board" style="rounded=1;whiteSpace=wrap;html=1;" parent="27" vertex="1">
                    <mxGeometry x="15" y="75" width="90" height="50" as="geometry"/>
                </mxCell>
                <mxCell id="30" value="Column" style="rounded=1;whiteSpace=wrap;html=1;" parent="27" vertex="1">
                    <mxGeometry x="20" y="130" width="70" height="50" as="geometry"/>
                </mxCell>
                <mxCell id="31" value="Cards" style="rounded=1;whiteSpace=wrap;html=1;" parent="27" vertex="1">
                    <mxGeometry x="30" y="200" width="70" height="40" as="geometry"/>
                </mxCell>
                <mxCell id="32" value="Log In" style="swimlane;" parent="1" vertex="1">
                    <mxGeometry x="420" y="230" width="130" height="200" as="geometry"/>
                </mxCell>
                <mxCell id="33" value="Form" style="rounded=1;whiteSpace=wrap;html=1;" parent="32" vertex="1">
                    <mxGeometry x="20" y="40" width="90" height="60" as="geometry"/>
                </mxCell>
                <mxCell id="35" value="Sign Up" style="swimlane;" parent="1" vertex="1">
                    <mxGeometry x="570" y="230" width="110" height="200" as="geometry"/>
                </mxCell>
                <mxCell id="36" value="Form" style="rounded=1;whiteSpace=wrap;html=1;" parent="35" vertex="1">
                    <mxGeometry x="11.25" y="40" width="87.5" height="60" as="geometry"/>
                </mxCell>
                <mxCell id="37" value="Profile" style="swimlane;" parent="1" vertex="1">
                    <mxGeometry x="700" y="230" width="120" height="200" as="geometry"/>
                </mxCell>
                <mxCell id="38" value="Header" style="rounded=1;whiteSpace=wrap;html=1;" parent="37" vertex="1">
                    <mxGeometry x="20" y="30" width="80" height="40" as="geometry"/>
                </mxCell>
            </root>
        </mxGraphModel>
    </diagram>
</mxfile>